<?xml version="1.0" encoding="UTF-8" standalone="no"?>
<!DOCTYPE svg PUBLIC "-//W3C//DTD SVG 1.1//EN"
 "http://www.w3.org/Graphics/SVG/1.1/DTD/svg11.dtd">
<!-- Generated by graphviz version 2.47.0 (20210316.0004)
 -->
<!-- Title: dependencies Pages: 1 -->
<svg width="504pt" height="352pt"
 viewBox="0.00 0.00 504.00 352.00" xmlns="http://www.w3.org/2000/svg" xmlns:xlink="http://www.w3.org/1999/xlink">
<g id="graph0" class="graph" transform="scale(1 1) rotate(0) translate(4 348)">
<title>dependencies</title>
<polygon fill="white" stroke="transparent" points="-4,4 -4,-348 500,-348 500,4 -4,4"/>
<text text-anchor="start" x="227.01" y="-42.4" font-family="Times-12" font-weight="bold" font-size="14.00">Legend</text>
<polygon fill="#ffffb3" stroke="transparent" points="14,-10 14,-30 34,-30 34,-10 14,-10"/>
<text text-anchor="start" x="37.63" y="-15.4" font-family="Times-12" font-size="14.00"> &#160;Declarations</text>
<polygon fill="#8dd3c7" stroke="transparent" points="127,-10 127,-30 147,-30 147,-10 127,-10"/>
<text text-anchor="start" x="150.73" y="-15.4" font-family="Times-12" font-size="14.00"> &#160;Module</text>
<polygon fill="#80b1d3" stroke="transparent" points="213,-10 213,-30 233,-30 233,-10 213,-10"/>
<text text-anchor="start" x="236.78" y="-15.4" font-family="Times-12" font-size="14.00"> &#160;Bootstrap</text>
<polygon fill="#fdb462" stroke="transparent" points="310,-10 310,-30 330,-30 330,-10 310,-10"/>
<text text-anchor="start" x="333.67" y="-15.4" font-family="Times-12" font-size="14.00"> &#160;Providers</text>
<polygon fill="#fb8072" stroke="transparent" points="406,-10 406,-30 426,-30 426,-10 406,-10"/>
<text text-anchor="start" x="429.73" y="-15.4" font-family="Times-12" font-size="14.00"> &#160;Exports</text>
<g id="clust1" class="cluster">
<title>cluster_AppModule</title>
<polygon fill="none" stroke="black" stroke-dasharray="1,5" points="175,-146 175,-336 445,-336 445,-146 175,-146"/>
</g>
<g id="clust3" class="cluster">
<title>cluster_AppModule_imports</title>
<polygon fill="none" stroke="black" points="321,-154 321,-271 429,-271 429,-154 321,-154"/>
</g>
<g id="clust6" class="cluster">
<title>cluster_AppModule_providers</title>
<polygon fill="none" stroke="black" points="183,-219 183,-271 313,-271 313,-219 183,-219"/>
</g>
<g id="clust7" class="cluster">
<title>cluster_AuthModule</title>
<polygon fill="none" stroke="black" stroke-dasharray="1,5" points="36,-70 36,-138 460,-138 460,-70 36,-70"/>
</g>
<g id="clust12" class="cluster">
<title>cluster_AuthModule_providers</title>
<polygon fill="none" stroke="black" points="44,-78 44,-130 452,-130 452,-78 44,-78"/>
</g>
<!-- AuthModule -->
<g id="node1" class="node">
<title>AuthModule</title>
<polygon fill="#8dd3c7" stroke="black" points="416.55,-263 413.55,-267 392.55,-267 389.55,-263 329.45,-263 329.45,-227 416.55,-227 416.55,-263"/>
<text text-anchor="middle" x="373" y="-240.8" font-family="Times,serif" font-size="14.00">AuthModule</text>
</g>
<!-- AppModule -->
<g id="node3" class="node">
<title>AppModule</title>
<polygon fill="#8dd3c7" stroke="black" points="414.66,-328 411.66,-332 390.66,-332 387.66,-328 331.34,-328 331.34,-292 414.66,-292 414.66,-328"/>
<text text-anchor="middle" x="373" y="-305.8" font-family="Times,serif" font-size="14.00">AppModule</text>
</g>
<!-- AuthModule&#45;&gt;AppModule -->
<g id="edge1" class="edge">
<title>AuthModule&#45;&gt;AppModule</title>
<path fill="none" stroke="black" d="M373,-263.11C373,-263.11 373,-281.99 373,-281.99"/>
<polygon fill="black" stroke="black" points="369.5,-281.99 373,-291.99 376.5,-281.99 369.5,-281.99"/>
</g>
<!-- UsersModule -->
<g id="node2" class="node">
<title>UsersModule</title>
<polygon fill="#8dd3c7" stroke="black" points="420.92,-198 417.92,-202 396.92,-202 393.92,-198 329.08,-198 329.08,-162 420.92,-162 420.92,-198"/>
<text text-anchor="middle" x="375" y="-175.8" font-family="Times,serif" font-size="14.00">UsersModule</text>
</g>
<!-- UsersModule&#45;&gt;AuthModule -->
<g id="edge4" class="edge">
<title>UsersModule&#45;&gt;AuthModule</title>
<path fill="none" stroke="black" d="M387.61,-198.11C387.61,-198.11 387.61,-216.99 387.61,-216.99"/>
<polygon fill="black" stroke="black" points="384.11,-216.99 387.61,-226.99 391.11,-216.99 384.11,-216.99"/>
</g>
<!-- UsersModule&#45;&gt;AppModule -->
<g id="edge2" class="edge">
<title>UsersModule&#45;&gt;AppModule</title>
<path fill="none" stroke="black" d="M329.07,-180C327.24,-180 326.16,-180 326.16,-180 326.16,-180 326.16,-304 326.16,-304 326.16,-304 326.66,-304 326.66,-304"/>
<polygon fill="black" stroke="black" points="321.17,-307.5 331.17,-304 321.17,-300.5 321.17,-307.5"/>
</g>
<!-- AppService -->
<g id="node4" class="node">
<title>AppService</title>
<ellipse fill="#fdb462" stroke="black" cx="248" cy="-245" rx="56.74" ry="18"/>
<text text-anchor="middle" x="248" y="-240.8" font-family="Times,serif" font-size="14.00">AppService</text>
</g>
<!-- AppService&#45;&gt;AppModule -->
<g id="edge3" class="edge">
<title>AppService&#45;&gt;AppModule</title>
<path fill="none" stroke="black" d="M248,-263.28C248,-284.32 248,-316 248,-316 248,-316 321.03,-316 321.03,-316"/>
<polygon fill="black" stroke="black" points="321.03,-319.5 331.03,-316 321.03,-312.5 321.03,-319.5"/>
</g>
<!-- AuthService -->
<g id="node5" class="node">
<title>AuthService</title>
<ellipse fill="#fdb462" stroke="black" cx="111" cy="-104" rx="59.11" ry="18"/>
<text text-anchor="middle" x="111" y="-99.8" font-family="Times,serif" font-size="14.00">AuthService</text>
</g>
<!-- AuthService&#45;&gt;AuthModule -->
<g id="edge5" class="edge">
<title>AuthService&#45;&gt;AuthModule</title>
<path fill="none" stroke="black" d="M111,-122.49C111,-153.59 111,-213 111,-213 111,-213 358.45,-213 358.45,-213 358.45,-213 358.45,-216.76 358.45,-216.76"/>
<polygon fill="black" stroke="black" points="354.95,-216.76 358.45,-226.76 361.95,-216.76 354.95,-216.76"/>
</g>
<!-- JwtStrategy -->
<g id="node6" class="node">
<title>JwtStrategy</title>
<ellipse fill="#fdb462" stroke="black" cx="245" cy="-104" rx="56.76" ry="18"/>
<text text-anchor="middle" x="245" y="-99.8" font-family="Times,serif" font-size="14.00">JwtStrategy</text>
</g>
<!-- JwtStrategy&#45;&gt;AuthModule -->
<g id="edge6" class="edge">
<title>JwtStrategy&#45;&gt;AuthModule</title>
<path fill="none" stroke="black" d="M301.8,-104C308.11,-104 312.32,-104 312.32,-104 312.32,-104 312.32,-239 312.32,-239 312.32,-239 319.22,-239 319.22,-239"/>
<polygon fill="black" stroke="black" points="319.22,-242.5 329.22,-239 319.22,-235.5 319.22,-242.5"/>
</g>
<!-- UsersService -->
<g id="node7" class="node">
<title>UsersService</title>
<ellipse fill="#fdb462" stroke="black" cx="382" cy="-104" rx="61.95" ry="18"/>
<text text-anchor="middle" x="382" y="-99.8" font-family="Times,serif" font-size="14.00">UsersService</text>
</g>
<!-- UsersService&#45;&gt;AuthModule -->
<g id="edge7" class="edge">
<title>UsersService&#45;&gt;AuthModule</title>
<path fill="none" stroke="black" d="M323.09,-109.94C323.09,-137.45 323.09,-251 323.09,-251 323.09,-251 323.7,-251 323.7,-251"/>
<polygon fill="black" stroke="black" points="319.21,-254.5 329.21,-251 319.21,-247.5 319.21,-254.5"/>
</g>
<!-- UsersService&#45;&gt;UsersModule -->
<g id="edge8" class="edge">
<title>UsersService&#45;&gt;UsersModule</title>
<path fill="none" stroke="black" d="M375,-122.01C375,-122.01 375,-151.85 375,-151.85"/>
<polygon fill="black" stroke="black" points="371.5,-151.85 375,-161.85 378.5,-151.85 371.5,-151.85"/>
</g>
</g>
</svg>
